<?xml version="1.0" encoding="UTF-8" standalone="no"?>
<!DOCTYPE svg PUBLIC "-//W3C//DTD SVG 1.1//EN" "http://www.w3.org/Graphics/SVG/1.1/DTD/svg11.dtd">
<svg width="100%" height="100%" viewBox="0 0 320 180" version="1.1" xmlns="http://www.w3.org/2000/svg" xmlns:xlink="http://www.w3.org/1999/xlink" xml:space="preserve" xmlns:serif="http://www.serif.com/" style="fill-rule:evenodd;clip-rule:evenodd;stroke-linejoin:round;stroke-miterlimit:2;">
    <g id="base-logo" serif:id="base logo" transform="matrix(1,0,0,1,0,-8)">
        <path id="path_0" d="M133,75.6L131.6,75.6C130.6,75.6 130,74.8 130,73.8C130,73.4 130.2,73 130.4,72.6L131.4,71.6C132,71 132,70 131.4,69.4L129,67C128.4,66.4 127.4,66.4 126.8,67L125.8,68C125.2,68.6 124.2,68.6 123.6,68C123.2,67.6 123.2,67.2 123.2,66.8L123.2,65.4C123.2,64.6 122.4,63.8 121.6,63.8L118,63.8C117.2,63.8 116.4,64.6 116.4,65.4L116.4,66.8C116.4,67.8 115.6,68.4 114.6,68.4C114.2,68.4 114,68.2 113.6,68L112.6,67C112,66.4 111,66.4 110.4,67L108,69.4C107.4,70 107.4,71 108,71.6L108.8,72.4C109.6,73 109.6,74.2 108.8,75C108.4,75.4 108,75.6 107.6,75.6L106.2,75.6C105.4,75.6 104.6,76.4 104.6,77.2L104.6,80.4C104.6,81.2 105.4,82 106.2,82L107.6,82C108.6,82 109.4,83 109.2,84C109.2,84.4 109,84.8 108.8,85L108,86.2C107.4,86.8 107.4,87.8 108,88.4L110.4,90.8C111,91.4 112,91.4 112.6,90.8L113.6,89.8C114.4,89.2 115.4,89.2 116,90C116.2,90.2 116.4,90.6 116.4,91L116.4,92.4C116.4,93.2 117,94 118,94.2L121.2,94.2C122,94.2 122.8,93.4 122.8,92.6L122.8,91.2C122.8,90.2 123.8,89.6 124.6,89.6C125,89.6 125.4,89.8 125.6,90L126.6,91C127.2,91.6 128.2,91.6 128.8,91L131.2,88.6C131.8,88 131.8,87 131.2,86.4L130.4,85.6C129.6,84.8 129.8,83.6 130.4,83C130.8,82.8 131.2,82.6 131.6,82.4L133,82.4C133.8,82.4 134.6,81.6 134.6,80.8L134.6,77.4C134.6,76.4 133.8,75.6 133,75.6ZM119.6,84.4C116.6,84.4 114.2,82 114.2,79C114.2,76 116.6,73.6 119.6,73.6C122.6,73.6 125,76 125,79C125,82 122.6,84.4 119.6,84.4Z" style="fill:white;fill-rule:nonzero;"/>
        <path id="path_1" d="M147.8,72.8C147,71 143,69.4 136.4,68.2C142.2,77.4 139.6,89.6 130.4,95.6C121.2,101.4 109,98.8 103,89.6C98.2,82.2 99,72.4 105,65.8C99.2,65.6 92.8,65.6 85.6,65.6C46.4,65.6 25.6,68.4 23.4,73C23.4,73 21.2,77.2 21.4,86.6L43.6,86.6C44.6,86.4 45.4,87 45.6,88L45.6,88.2C45.6,89.2 44.4,89.8 43.2,89.8L21.6,89.8C21.8,91.2 22,92.8 22.2,94.4L48.4,94.4C49.4,94.2 50.2,94.8 50.4,95.8L50.4,96C50.4,97 49.2,97.6 48,97.6L22.6,97.6C22.8,99.2 23.2,100.6 23.4,102L53,102C54,101.8 54.8,102.4 55,103.4L55,103.6C55,104.4 53.8,105.2 52.6,105.2L24.2,105.2C27.2,116.6 30,116.6 30,116.6L34,116.6L34,119C34,120.2 36.4,121 38.8,121L58,121C60.4,121 62.8,120 62.8,119L62.8,116.6L108.2,116.6L108.2,119C108.2,120.2 110.6,121 113,121L132.2,121C134.6,121 137,120 137,119L137,116.6L141,116.6C141,116.6 145.4,116.6 149,95C151.6,79.4 147.8,72.8 147.8,72.8Z" style="fill:rgb(1,180,228);fill-rule:nonzero;"/>
        <path id="path_8" d="M160.4,62.4L160.4,82.2C160.4,83.8 160,85.4 159.4,86.8C158.8,88.2 158,89.4 156.8,90.4C154.6,92.6 151.6,93.8 148.6,93.8L148.4,93.8C146.8,93.8 145.4,93.4 143.8,92.8C142.4,92.2 141,91.4 140,90.2C139,89.2 138,87.8 137.4,86.4C136.8,85 136.6,83.4 136.6,81.8L143.8,81.8C143.8,83 144.2,84.2 145.2,85.2C146,86 147.2,86.6 148.6,86.6C149.2,86.6 149.8,86.4 150.4,86.2C151,86 151.4,85.6 151.8,85.2C152.2,84.8 152.6,84.2 152.8,83.8C153,83.2 153.2,82.6 153.2,82L153.2,62.4L160.4,62.4Z" style="fill:white;fill-rule:nonzero;"/>
        <path id="path_9" d="M183.4,69.8L170.4,69.8L170.4,74.6L180.8,74.6L180.8,81.8L170.4,81.8L170.4,86.8L183.4,86.8L183.4,94L163.2,94L163.2,62.6L183.4,62.6L183.4,69.8Z" style="fill:white;fill-rule:nonzero;"/>
        <path id="path_10" d="M199.6,94C197.6,94 195.6,93.6 193.6,92.8C191.6,92 189.8,90.8 188.4,89.4C187,88 185.8,86.2 185,84.2C183.4,80.4 183.4,76 185,72.2C186.6,68.4 189.8,65.2 193.6,63.6C197.4,62 201.6,62 205.4,63.6C207.4,64.4 209.2,65.6 210.6,67L205.4,72C204.6,71.2 203.6,70.6 202.6,70.2C201.6,69.8 200.4,69.6 199.4,69.6C198.4,69.6 197.2,69.8 196.2,70.2C195.2,70.6 194.2,71.2 193.4,72C192.6,72.8 192,73.8 191.6,74.8C191.2,75.8 191,77 191,78C191,79.2 191.2,80.2 191.6,81.2C192,82.2 192.6,83.2 193.4,84C194.2,84.8 195.2,85.4 196.2,85.8C197.2,86.2 198.2,86.4 199.4,86.4C200.6,86.4 201.6,86.2 202.6,85.8C203.6,85.4 204.6,84.8 205.4,84L210.6,89.2C209.2,90.6 207.4,91.8 205.4,92.6C203.6,93.6 201.6,94 199.6,94Z" style="fill:white;fill-rule:nonzero;"/>
        <path id="path_11" d="M231.6,62.4L231.6,69.6L225.6,69.6L225.6,94L218.4,94L218.4,69.8L212.4,69.8L212.4,62.6L231.6,62.6L231.6,62.4Z" style="fill:white;fill-rule:nonzero;"/>
        <rect id="path_12" x="234.2" y="62.4" width="7.2" height="31.6" style="fill:white;fill-rule:nonzero;"/>
        <path id="path_13" d="M264,62.4L271.6,62.4L261,94L254.2,94L244.2,62.4L251.8,62.4L257.8,81.8L264,62.4Z" style="fill:white;fill-rule:nonzero;"/>
        <path id="path_14" d="M278.2,94L281.8,85.2L271.2,62.6L279.2,62.6L285.6,76L291.2,62.4L299,62.4L286,94L278.2,94Z" style="fill:white;fill-rule:nonzero;"/>
        <path id="path_15" d="M76.8,76.2C76.8,78 76.4,79.6 75.8,81.2C74.6,84.2 72,86.8 69,88C67.4,88.6 65.8,89 64,89L64,94L56.8,94L56.8,63.2L64,63.2C65.8,63.2 67.4,63.6 69,64.4C70.4,65 71.8,66 73,67.2C74.2,68.4 75,69.8 75.8,71.2C76.4,72.6 76.8,74.4 76.8,76.2ZM64,82C64.8,82 65.6,81.8 66.2,81.4C66.8,81 67.4,80.6 68,80.2C68.6,79.6 69,79 69.2,78.4C69.4,77.6 69.6,77 69.6,76.2C69.6,75.4 69.4,74.6 69.2,74C69,73.2 68.6,72.6 68,72C67.4,71.4 66.8,71 66.2,70.8C65.6,70.4 64.8,70.2 64,70.2L64,82Z" style="fill:white;fill-rule:nonzero;"/>
        <path id="path_16" d="M88.2,86L87.2,86.2L86,86.2L86,94L78.8,94L78.8,63.2L86,63.2C87.6,63.2 89.4,63.6 91,64.2C92.4,64.8 93.8,65.6 95,66.6C96.2,67.6 97,68.8 97.8,70.2C98.4,71.6 98.8,73 98.8,74.6C98.8,76.2 98.4,77.8 97.8,79.2C97,80.6 96,81.8 94.8,82.8L101.6,93.8L93.2,93.8L88.2,86ZM86,79C86.8,79 87.4,78.8 88.2,78.6C88.8,78.4 89.4,78 90,77.6C90.4,77.2 91,76.8 91.2,76.2C91.4,75.8 91.6,75.2 91.6,74.6C91.6,74 91.4,73.4 91.2,73C90.8,72.4 90.4,72 90,71.6C89.4,71.2 88.8,70.8 88.2,70.6C87.4,70.4 86.8,70.2 86,70.2L86,79Z" style="fill:white;fill-rule:nonzero;"/>
    </g>
    <g transform="matrix(1,0,0,1,71,-46.6218)">
        <g transform="matrix(24,0,0,24,87.791,158)">
            <path d="M0.358,0.013C0.31,0.013 0.267,0.005 0.227,-0.011C0.187,-0.027 0.153,-0.05 0.124,-0.082C0.095,-0.114 0.072,-0.153 0.056,-0.2C0.04,-0.247 0.032,-0.302 0.032,-0.363C0.032,-0.424 0.04,-0.477 0.055,-0.522C0.071,-0.567 0.093,-0.607 0.123,-0.64C0.152,-0.673 0.186,-0.698 0.226,-0.715C0.266,-0.732 0.31,-0.74 0.359,-0.74C0.384,-0.74 0.407,-0.738 0.428,-0.735C0.449,-0.731 0.469,-0.727 0.487,-0.721C0.503,-0.716 0.519,-0.71 0.535,-0.703C0.552,-0.696 0.568,-0.688 0.584,-0.679L0.584,-0.562L0.576,-0.562C0.568,-0.57 0.557,-0.579 0.543,-0.59C0.53,-0.601 0.514,-0.612 0.495,-0.623C0.476,-0.633 0.456,-0.641 0.434,-0.648C0.412,-0.654 0.387,-0.658 0.358,-0.658C0.327,-0.658 0.298,-0.651 0.271,-0.639C0.243,-0.626 0.219,-0.607 0.198,-0.583C0.177,-0.558 0.161,-0.527 0.15,-0.489C0.139,-0.452 0.133,-0.41 0.133,-0.363C0.133,-0.313 0.139,-0.27 0.151,-0.234C0.163,-0.198 0.179,-0.168 0.2,-0.143C0.22,-0.119 0.244,-0.101 0.271,-0.089C0.299,-0.076 0.328,-0.07 0.358,-0.07C0.386,-0.07 0.412,-0.074 0.436,-0.081C0.46,-0.087 0.481,-0.096 0.5,-0.106C0.517,-0.117 0.533,-0.127 0.546,-0.137C0.559,-0.148 0.569,-0.157 0.577,-0.165L0.584,-0.165L0.584,-0.049C0.568,-0.042 0.553,-0.035 0.539,-0.028C0.525,-0.021 0.507,-0.014 0.487,-0.008C0.466,-0.001 0.447,0.004 0.428,0.008C0.41,0.011 0.387,0.013 0.358,0.013Z" style="fill:rgb(144,206,161);fill-rule:nonzero;"/>
        </g>
        <g transform="matrix(24,0,0,24,102.205,158)">
            <path d="M0.16,-0L0.068,-0L0.068,-0.545L0.16,-0.545L0.16,-0ZM0.167,-0.637L0.062,-0.637L0.062,-0.732L0.167,-0.732L0.167,-0.637Z" style="fill:rgb(144,206,161);fill-rule:nonzero;"/>
        </g>
        <g transform="matrix(24,0,0,24,107.689,158)">
            <path d="M0.495,-0L0.403,-0L0.403,-0.311C0.403,-0.336 0.402,-0.359 0.4,-0.381C0.397,-0.402 0.393,-0.42 0.386,-0.433C0.378,-0.446 0.368,-0.456 0.354,-0.463C0.341,-0.47 0.323,-0.473 0.3,-0.473C0.277,-0.473 0.253,-0.467 0.229,-0.455C0.205,-0.443 0.181,-0.427 0.158,-0.407L0.158,-0L0.066,-0L0.066,-0.545L0.158,-0.545L0.158,-0.485C0.186,-0.509 0.213,-0.528 0.239,-0.541C0.266,-0.554 0.294,-0.561 0.324,-0.561C0.377,-0.561 0.419,-0.543 0.45,-0.508C0.48,-0.472 0.495,-0.421 0.495,-0.354L0.495,-0Z" style="fill:rgb(144,206,161);fill-rule:nonzero;"/>
        </g>
        <g transform="matrix(24,0,0,24,121.072,158)">
            <path d="M0.303,0.013C0.216,0.013 0.149,-0.012 0.101,-0.061C0.053,-0.11 0.029,-0.179 0.029,-0.27C0.029,-0.358 0.052,-0.429 0.099,-0.482C0.145,-0.534 0.206,-0.561 0.281,-0.561C0.315,-0.561 0.345,-0.556 0.371,-0.546C0.397,-0.536 0.42,-0.521 0.439,-0.5C0.459,-0.479 0.474,-0.454 0.484,-0.424C0.495,-0.393 0.5,-0.357 0.5,-0.313L0.5,-0.263L0.122,-0.263C0.122,-0.2 0.138,-0.151 0.17,-0.118C0.202,-0.084 0.246,-0.067 0.302,-0.067C0.322,-0.067 0.342,-0.07 0.362,-0.074C0.381,-0.079 0.398,-0.085 0.414,-0.092C0.431,-0.099 0.445,-0.107 0.456,-0.114C0.467,-0.121 0.477,-0.127 0.484,-0.133L0.49,-0.133L0.49,-0.033C0.479,-0.029 0.466,-0.024 0.45,-0.017C0.434,-0.011 0.419,-0.006 0.407,-0.002C0.389,0.002 0.373,0.006 0.358,0.009C0.344,0.011 0.325,0.013 0.303,0.013ZM0.411,-0.333C0.41,-0.358 0.407,-0.38 0.402,-0.397C0.397,-0.415 0.389,-0.431 0.379,-0.443C0.369,-0.457 0.355,-0.467 0.338,-0.474C0.321,-0.481 0.301,-0.485 0.276,-0.485C0.251,-0.485 0.231,-0.481 0.214,-0.474C0.197,-0.467 0.181,-0.456 0.167,-0.442C0.153,-0.428 0.143,-0.412 0.136,-0.394C0.129,-0.377 0.124,-0.357 0.122,-0.333L0.411,-0.333Z" style="fill:rgb(144,206,161);fill-rule:nonzero;"/>
        </g>
        <g transform="matrix(24,0,0,24,133.705,158)">
            <path d="M0.686,-0L0.686,-0.315C0.686,-0.34 0.685,-0.364 0.683,-0.385C0.681,-0.406 0.677,-0.423 0.67,-0.435C0.664,-0.448 0.655,-0.458 0.643,-0.464C0.631,-0.47 0.614,-0.473 0.594,-0.473C0.575,-0.473 0.555,-0.467 0.533,-0.456C0.511,-0.444 0.489,-0.428 0.466,-0.406C0.466,-0.4 0.467,-0.394 0.467,-0.386C0.468,-0.378 0.468,-0.369 0.468,-0.359L0.468,-0L0.376,-0L0.376,-0.315C0.376,-0.34 0.375,-0.364 0.373,-0.385C0.371,-0.406 0.367,-0.423 0.361,-0.435C0.354,-0.448 0.345,-0.458 0.333,-0.464C0.321,-0.47 0.305,-0.473 0.284,-0.473C0.264,-0.473 0.243,-0.467 0.222,-0.455C0.2,-0.442 0.179,-0.426 0.158,-0.407L0.158,-0L0.066,-0L0.066,-0.545L0.158,-0.545L0.158,-0.485C0.182,-0.509 0.206,-0.528 0.23,-0.541C0.253,-0.554 0.279,-0.561 0.308,-0.561C0.34,-0.561 0.368,-0.553 0.393,-0.539C0.418,-0.524 0.437,-0.5 0.45,-0.466C0.478,-0.497 0.505,-0.521 0.531,-0.537C0.558,-0.553 0.586,-0.561 0.617,-0.561C0.641,-0.561 0.662,-0.557 0.681,-0.55C0.7,-0.542 0.717,-0.53 0.731,-0.514C0.746,-0.498 0.757,-0.477 0.765,-0.452C0.773,-0.427 0.777,-0.396 0.777,-0.359L0.777,-0L0.686,-0Z" style="fill:rgb(144,206,161);fill-rule:nonzero;"/>
        </g>
        <g transform="matrix(24,0,0,24,153.861,158)">
            <path d="M0.371,-0.134L0.371,-0.286C0.349,-0.284 0.322,-0.281 0.288,-0.278C0.255,-0.274 0.228,-0.269 0.208,-0.263C0.183,-0.256 0.163,-0.244 0.147,-0.229C0.131,-0.213 0.123,-0.192 0.123,-0.164C0.123,-0.133 0.132,-0.109 0.149,-0.093C0.167,-0.077 0.193,-0.069 0.227,-0.069C0.256,-0.069 0.282,-0.076 0.305,-0.088C0.329,-0.101 0.351,-0.116 0.371,-0.134ZM0.371,-0.058C0.364,-0.053 0.354,-0.045 0.341,-0.035C0.329,-0.025 0.316,-0.017 0.305,-0.011C0.288,-0.003 0.273,0.004 0.258,0.008C0.242,0.013 0.221,0.015 0.194,0.015C0.171,0.015 0.15,0.011 0.13,0.002C0.11,-0.006 0.092,-0.018 0.077,-0.033C0.062,-0.048 0.05,-0.067 0.042,-0.089C0.033,-0.111 0.028,-0.134 0.028,-0.158C0.028,-0.196 0.036,-0.228 0.052,-0.255C0.068,-0.281 0.093,-0.302 0.128,-0.318C0.159,-0.332 0.195,-0.342 0.236,-0.347C0.278,-0.352 0.323,-0.356 0.371,-0.359L0.371,-0.376C0.371,-0.398 0.368,-0.415 0.361,-0.428C0.355,-0.442 0.346,-0.452 0.334,-0.459C0.322,-0.466 0.308,-0.471 0.291,-0.474C0.274,-0.476 0.257,-0.478 0.239,-0.478C0.218,-0.478 0.193,-0.474 0.164,-0.468C0.135,-0.462 0.107,-0.452 0.078,-0.44L0.073,-0.44L0.073,-0.534C0.09,-0.539 0.114,-0.544 0.146,-0.55C0.177,-0.556 0.208,-0.559 0.239,-0.559C0.277,-0.559 0.308,-0.556 0.334,-0.55C0.36,-0.544 0.383,-0.533 0.403,-0.518C0.423,-0.503 0.438,-0.484 0.448,-0.46C0.458,-0.436 0.462,-0.407 0.462,-0.373L0.462,-0L0.371,-0L0.371,-0.058Z" style="fill:rgb(144,206,161);fill-rule:nonzero;"/>
        </g>
        <g transform="matrix(24,0,0,24,173.959,158)">
            <path d="M0.378,0.014C0.326,0.014 0.279,0.006 0.237,-0.009C0.194,-0.025 0.158,-0.049 0.127,-0.081C0.096,-0.113 0.073,-0.153 0.057,-0.2C0.04,-0.248 0.032,-0.302 0.032,-0.364C0.032,-0.423 0.04,-0.475 0.057,-0.522C0.073,-0.568 0.097,-0.608 0.127,-0.641C0.157,-0.673 0.194,-0.697 0.237,-0.714C0.28,-0.732 0.327,-0.74 0.379,-0.74C0.403,-0.74 0.427,-0.738 0.449,-0.735C0.472,-0.731 0.493,-0.726 0.514,-0.72C0.53,-0.715 0.548,-0.709 0.568,-0.7C0.588,-0.691 0.604,-0.684 0.617,-0.678L0.617,-0.561L0.608,-0.561C0.596,-0.572 0.584,-0.582 0.571,-0.592C0.558,-0.601 0.54,-0.611 0.517,-0.623C0.497,-0.632 0.475,-0.64 0.449,-0.647C0.424,-0.653 0.396,-0.657 0.367,-0.657C0.297,-0.657 0.241,-0.63 0.198,-0.578C0.154,-0.525 0.133,-0.455 0.133,-0.367C0.133,-0.318 0.139,-0.276 0.15,-0.239C0.161,-0.203 0.178,-0.172 0.199,-0.146C0.22,-0.121 0.245,-0.102 0.275,-0.089C0.304,-0.076 0.337,-0.069 0.374,-0.069C0.401,-0.069 0.429,-0.071 0.456,-0.075C0.483,-0.079 0.505,-0.085 0.524,-0.093L0.524,-0.281L0.356,-0.281L0.356,-0.366L0.62,-0.366L0.62,-0.048C0.607,-0.043 0.591,-0.036 0.57,-0.027C0.549,-0.019 0.53,-0.012 0.512,-0.007C0.488,-0 0.467,0.005 0.448,0.009C0.429,0.012 0.405,0.014 0.378,0.014Z" style="fill:rgb(144,206,161);fill-rule:nonzero;"/>
        </g>
        <g transform="matrix(24,0,0,24,189.979,158)">
            <rect x="0.068" y="-0.76" width="0.092" height="0.76" style="fill:rgb(144,206,161);fill-rule:nonzero;"/>
        </g>
        <g transform="matrix(24,0,0,24,195.463,158)">
            <path d="M0.515,-0.272C0.515,-0.181 0.493,-0.11 0.449,-0.06C0.404,-0.01 0.346,0.015 0.272,0.015C0.196,0.015 0.136,-0.011 0.093,-0.062C0.05,-0.114 0.028,-0.184 0.028,-0.272C0.028,-0.364 0.05,-0.434 0.095,-0.485C0.14,-0.535 0.199,-0.561 0.272,-0.561C0.346,-0.561 0.404,-0.535 0.449,-0.485C0.493,-0.435 0.515,-0.364 0.515,-0.272ZM0.42,-0.272C0.42,-0.343 0.408,-0.396 0.382,-0.43C0.356,-0.464 0.319,-0.481 0.272,-0.481C0.224,-0.481 0.187,-0.464 0.161,-0.43C0.135,-0.396 0.123,-0.343 0.123,-0.272C0.123,-0.204 0.135,-0.152 0.161,-0.117C0.187,-0.082 0.224,-0.064 0.272,-0.064C0.319,-0.064 0.356,-0.081 0.382,-0.116C0.407,-0.151 0.42,-0.203 0.42,-0.272Z" style="fill:rgb(144,206,161);fill-rule:nonzero;"/>
        </g>
        <g transform="matrix(24,0,0,24,208.494,158)">
            <path d="M0.728,-0.545L0.589,-0L0.504,-0L0.371,-0.42L0.239,-0L0.154,-0L0.015,-0.545L0.11,-0.545L0.207,-0.123L0.336,-0.545L0.412,-0.545L0.544,-0.123L0.635,-0.545L0.728,-0.545Z" style="fill:rgb(144,206,161);fill-rule:nonzero;"/>
        </g>
        <g transform="matrix(24,0,0,24,124.916,182)">
            <path d="M0.524,-0.287C0.524,-0.196 0.502,-0.124 0.459,-0.07C0.415,-0.016 0.36,0.011 0.294,0.011C0.267,0.011 0.243,0.008 0.222,0.001C0.201,-0.005 0.18,-0.014 0.158,-0.027L0.158,0.201L0.066,0.201L0.066,-0.545L0.158,-0.545L0.158,-0.488C0.181,-0.509 0.206,-0.526 0.234,-0.54C0.262,-0.554 0.292,-0.561 0.325,-0.561C0.388,-0.561 0.436,-0.536 0.471,-0.486C0.506,-0.437 0.524,-0.37 0.524,-0.287ZM0.429,-0.277C0.429,-0.339 0.419,-0.387 0.399,-0.422C0.38,-0.456 0.347,-0.473 0.303,-0.473C0.277,-0.473 0.252,-0.467 0.227,-0.456C0.203,-0.444 0.18,-0.429 0.158,-0.411L0.158,-0.102C0.182,-0.09 0.203,-0.082 0.22,-0.078C0.237,-0.074 0.257,-0.072 0.279,-0.072C0.326,-0.072 0.363,-0.089 0.39,-0.124C0.416,-0.159 0.429,-0.21 0.429,-0.277Z" style="fill:rgb(144,206,161);fill-rule:nonzero;"/>
        </g>
        <g transform="matrix(24,0,0,24,138.182,182)">
            <rect x="0.068" y="-0.76" width="0.092" height="0.76" style="fill:rgb(144,206,161);fill-rule:nonzero;"/>
        </g>
        <g transform="matrix(24,0,0,24,143.666,182)">
            <path d="M0.491,-0L0.399,-0L0.399,-0.061C0.371,-0.036 0.344,-0.017 0.319,-0.004C0.293,0.009 0.265,0.015 0.234,0.015C0.21,0.015 0.188,0.011 0.167,0.003C0.146,-0.004 0.127,-0.017 0.112,-0.034C0.096,-0.051 0.084,-0.072 0.075,-0.098C0.067,-0.123 0.063,-0.155 0.063,-0.191L0.063,-0.545L0.154,-0.545L0.154,-0.235C0.154,-0.206 0.155,-0.182 0.157,-0.163C0.16,-0.144 0.164,-0.127 0.172,-0.113C0.179,-0.099 0.19,-0.089 0.202,-0.082C0.215,-0.076 0.234,-0.072 0.258,-0.072C0.28,-0.072 0.304,-0.079 0.33,-0.091C0.355,-0.104 0.378,-0.12 0.399,-0.138L0.399,-0.545L0.491,-0.545L0.491,-0Z" style="fill:rgb(144,206,161);fill-rule:nonzero;"/>
        </g>
        <g transform="matrix(24,0,0,24,157.049,182)">
            <path d="M0.395,-0.148L0.395,-0.447C0.372,-0.458 0.351,-0.466 0.331,-0.471C0.312,-0.476 0.293,-0.478 0.273,-0.478C0.227,-0.478 0.19,-0.461 0.164,-0.427C0.137,-0.393 0.124,-0.344 0.124,-0.28C0.124,-0.219 0.134,-0.173 0.154,-0.142C0.174,-0.11 0.207,-0.094 0.253,-0.094C0.277,-0.094 0.301,-0.099 0.326,-0.108C0.352,-0.118 0.374,-0.131 0.395,-0.148ZM0.086,0.087C0.092,0.09 0.101,0.094 0.113,0.098C0.125,0.102 0.139,0.106 0.154,0.11C0.171,0.115 0.187,0.118 0.201,0.121C0.215,0.123 0.231,0.125 0.248,0.125C0.276,0.125 0.3,0.121 0.32,0.113C0.34,0.106 0.355,0.095 0.366,0.082C0.377,0.069 0.384,0.053 0.388,0.036C0.392,0.018 0.395,-0.002 0.395,-0.024L0.395,-0.072C0.37,-0.051 0.346,-0.035 0.322,-0.025C0.298,-0.014 0.268,-0.009 0.232,-0.009C0.17,-0.009 0.121,-0.032 0.084,-0.079C0.047,-0.125 0.029,-0.191 0.029,-0.278C0.029,-0.323 0.035,-0.363 0.048,-0.398C0.061,-0.433 0.078,-0.463 0.099,-0.487C0.12,-0.511 0.144,-0.529 0.172,-0.542C0.2,-0.554 0.229,-0.561 0.259,-0.561C0.287,-0.561 0.312,-0.557 0.332,-0.551C0.353,-0.544 0.374,-0.534 0.395,-0.522L0.4,-0.545L0.486,-0.545L0.486,-0.062C0.486,0.03 0.466,0.098 0.426,0.142C0.385,0.185 0.324,0.207 0.241,0.207C0.214,0.207 0.187,0.204 0.159,0.2C0.131,0.196 0.105,0.19 0.081,0.183L0.081,0.087L0.086,0.087Z" style="fill:rgb(144,206,161);fill-rule:nonzero;"/>
        </g>
        <g transform="matrix(24,0,0,24,170.314,182)">
            <path d="M0.16,-0L0.068,-0L0.068,-0.545L0.16,-0.545L0.16,-0ZM0.167,-0.637L0.062,-0.637L0.062,-0.732L0.167,-0.732L0.167,-0.637Z" style="fill:rgb(144,206,161);fill-rule:nonzero;"/>
        </g>
        <g transform="matrix(24,0,0,24,175.799,182)">
            <path d="M0.495,-0L0.403,-0L0.403,-0.311C0.403,-0.336 0.402,-0.359 0.4,-0.381C0.397,-0.402 0.393,-0.42 0.386,-0.433C0.378,-0.446 0.368,-0.456 0.354,-0.463C0.341,-0.47 0.323,-0.473 0.3,-0.473C0.277,-0.473 0.253,-0.467 0.229,-0.455C0.205,-0.443 0.181,-0.427 0.158,-0.407L0.158,-0L0.066,-0L0.066,-0.545L0.158,-0.545L0.158,-0.485C0.186,-0.509 0.213,-0.528 0.239,-0.541C0.266,-0.554 0.294,-0.561 0.324,-0.561C0.377,-0.561 0.419,-0.543 0.45,-0.508C0.48,-0.472 0.495,-0.421 0.495,-0.354L0.495,-0Z" style="fill:rgb(144,206,161);fill-rule:nonzero;"/>
        </g>
    </g>
</svg>
