<?xml version="1.0" encoding="UTF-8" standalone="no"?>
<!DOCTYPE svg PUBLIC "-//W3C//DTD SVG 1.1//EN" "http://www.w3.org/Graphics/SVG/1.1/DTD/svg11.dtd">
<svg width="100%" height="100%" viewBox="0 0 320 180" version="1.1" xmlns="http://www.w3.org/2000/svg" xmlns:xlink="http://www.w3.org/1999/xlink" xml:space="preserve" xmlns:serif="http://www.serif.com/" style="fill-rule:evenodd;clip-rule:evenodd;stroke-linejoin:round;stroke-miterlimit:2;">
    <g id="base-logo" serif:id="base logo" transform="matrix(1,0,0,1,0,-8)">
        <path id="path_0" d="M133,75.6L131.6,75.6C130.6,75.6 130,74.8 130,73.8C130,73.4 130.2,73 130.4,72.6L131.4,71.6C132,71 132,70 131.4,69.4L129,67C128.4,66.4 127.4,66.4 126.8,67L125.8,68C125.2,68.6 124.2,68.6 123.6,68C123.2,67.6 123.2,67.2 123.2,66.8L123.2,65.4C123.2,64.6 122.4,63.8 121.6,63.8L118,63.8C117.2,63.8 116.4,64.6 116.4,65.4L116.4,66.8C116.4,67.8 115.6,68.4 114.6,68.4C114.2,68.4 114,68.2 113.6,68L112.6,67C112,66.4 111,66.4 110.4,67L108,69.4C107.4,70 107.4,71 108,71.6L108.8,72.4C109.6,73 109.6,74.2 108.8,75C108.4,75.4 108,75.6 107.6,75.6L106.2,75.6C105.4,75.6 104.6,76.4 104.6,77.2L104.6,80.4C104.6,81.2 105.4,82 106.2,82L107.6,82C108.6,82 109.4,83 109.2,84C109.2,84.4 109,84.8 108.8,85L108,86.2C107.4,86.8 107.4,87.8 108,88.4L110.4,90.8C111,91.4 112,91.4 112.6,90.8L113.6,89.8C114.4,89.2 115.4,89.2 116,90C116.2,90.2 116.4,90.6 116.4,91L116.4,92.4C116.4,93.2 117,94 118,94.2L121.2,94.2C122,94.2 122.8,93.4 122.8,92.6L122.8,91.2C122.8,90.2 123.8,89.6 124.6,89.6C125,89.6 125.4,89.8 125.6,90L126.6,91C127.2,91.6 128.2,91.6 128.8,91L131.2,88.6C131.8,88 131.8,87 131.2,86.4L130.4,85.6C129.6,84.8 129.8,83.6 130.4,83C130.8,82.8 131.2,82.6 131.6,82.4L133,82.4C133.8,82.4 134.6,81.6 134.6,80.8L134.6,77.4C134.6,76.4 133.8,75.6 133,75.6ZM119.6,84.4C116.6,84.4 114.2,82 114.2,79C114.2,76 116.6,73.6 119.6,73.6C122.6,73.6 125,76 125,79C125,82 122.6,84.4 119.6,84.4Z" style="fill:white;fill-rule:nonzero;"/>
        <path id="path_1" d="M147.8,72.8C147,71 143,69.4 136.4,68.2C142.2,77.4 139.6,89.6 130.4,95.6C121.2,101.4 109,98.8 103,89.6C98.2,82.2 99,72.4 105,65.8C99.2,65.6 92.8,65.6 85.6,65.6C46.4,65.6 25.6,68.4 23.4,73C23.4,73 21.2,77.2 21.4,86.6L43.6,86.6C44.6,86.4 45.4,87 45.6,88L45.6,88.2C45.6,89.2 44.4,89.8 43.2,89.8L21.6,89.8C21.8,91.2 22,92.8 22.2,94.4L48.4,94.4C49.4,94.2 50.2,94.8 50.4,95.8L50.4,96C50.4,97 49.2,97.6 48,97.6L22.6,97.6C22.8,99.2 23.2,100.6 23.4,102L53,102C54,101.8 54.8,102.4 55,103.4L55,103.6C55,104.4 53.8,105.2 52.6,105.2L24.2,105.2C27.2,116.6 30,116.6 30,116.6L34,116.6L34,119C34,120.2 36.4,121 38.8,121L58,121C60.4,121 62.8,120 62.8,119L62.8,116.6L108.2,116.6L108.2,119C108.2,120.2 110.6,121 113,121L132.2,121C134.6,121 137,120 137,119L137,116.6L141,116.6C141,116.6 145.4,116.6 149,95C151.6,79.4 147.8,72.8 147.8,72.8Z" style="fill:rgb(1,180,228);fill-rule:nonzero;"/>
        <path id="path_8" d="M160.4,62.4L160.4,82.2C160.4,83.8 160,85.4 159.4,86.8C158.8,88.2 158,89.4 156.8,90.4C154.6,92.6 151.6,93.8 148.6,93.8L148.4,93.8C146.8,93.8 145.4,93.4 143.8,92.8C142.4,92.2 141,91.4 140,90.2C139,89.2 138,87.8 137.4,86.4C136.8,85 136.6,83.4 136.6,81.8L143.8,81.8C143.8,83 144.2,84.2 145.2,85.2C146,86 147.2,86.6 148.6,86.6C149.2,86.6 149.8,86.4 150.4,86.2C151,86 151.4,85.6 151.8,85.2C152.2,84.8 152.6,84.2 152.8,83.8C153,83.2 153.2,82.6 153.2,82L153.2,62.4L160.4,62.4Z" style="fill:white;fill-rule:nonzero;"/>
        <path id="path_9" d="M183.4,69.8L170.4,69.8L170.4,74.6L180.8,74.6L180.8,81.8L170.4,81.8L170.4,86.8L183.4,86.8L183.4,94L163.2,94L163.2,62.6L183.4,62.6L183.4,69.8Z" style="fill:white;fill-rule:nonzero;"/>
        <path id="path_10" d="M199.6,94C197.6,94 195.6,93.6 193.6,92.8C191.6,92 189.8,90.8 188.4,89.4C187,88 185.8,86.2 185,84.2C183.4,80.4 183.4,76 185,72.2C186.6,68.4 189.8,65.2 193.6,63.6C197.4,62 201.6,62 205.4,63.6C207.4,64.4 209.2,65.6 210.6,67L205.4,72C204.6,71.2 203.6,70.6 202.6,70.2C201.6,69.8 200.4,69.6 199.4,69.6C198.4,69.6 197.2,69.8 196.2,70.2C195.2,70.6 194.2,71.2 193.4,72C192.6,72.8 192,73.8 191.6,74.8C191.2,75.8 191,77 191,78C191,79.2 191.2,80.2 191.6,81.2C192,82.2 192.6,83.2 193.4,84C194.2,84.8 195.2,85.4 196.2,85.8C197.2,86.2 198.2,86.4 199.4,86.4C200.6,86.4 201.6,86.2 202.6,85.8C203.6,85.4 204.6,84.8 205.4,84L210.6,89.2C209.2,90.6 207.4,91.8 205.4,92.6C203.6,93.6 201.6,94 199.6,94Z" style="fill:white;fill-rule:nonzero;"/>
        <path id="path_11" d="M231.6,62.4L231.6,69.6L225.6,69.6L225.6,94L218.4,94L218.4,69.8L212.4,69.8L212.4,62.6L231.6,62.6L231.6,62.4Z" style="fill:white;fill-rule:nonzero;"/>
        <rect id="path_12" x="234.2" y="62.4" width="7.2" height="31.6" style="fill:white;fill-rule:nonzero;"/>
        <path id="path_13" d="M264,62.4L271.6,62.4L261,94L254.2,94L244.2,62.4L251.8,62.4L257.8,81.8L264,62.4Z" style="fill:white;fill-rule:nonzero;"/>
        <path id="path_14" d="M278.2,94L281.8,85.2L271.2,62.6L279.2,62.6L285.6,76L291.2,62.4L299,62.4L286,94L278.2,94Z" style="fill:white;fill-rule:nonzero;"/>
        <path id="path_15" d="M76.8,76.2C76.8,78 76.4,79.6 75.8,81.2C74.6,84.2 72,86.8 69,88C67.4,88.6 65.8,89 64,89L64,94L56.8,94L56.8,63.2L64,63.2C65.8,63.2 67.4,63.6 69,64.4C70.4,65 71.8,66 73,67.2C74.2,68.4 75,69.8 75.8,71.2C76.4,72.6 76.8,74.4 76.8,76.2ZM64,82C64.8,82 65.6,81.8 66.2,81.4C66.8,81 67.4,80.6 68,80.2C68.6,79.6 69,79 69.2,78.4C69.4,77.6 69.6,77 69.6,76.2C69.6,75.4 69.4,74.6 69.2,74C69,73.2 68.6,72.6 68,72C67.4,71.4 66.8,71 66.2,70.8C65.6,70.4 64.8,70.2 64,70.2L64,82Z" style="fill:white;fill-rule:nonzero;"/>
        <path id="path_16" d="M88.2,86L87.2,86.2L86,86.2L86,94L78.8,94L78.8,63.2L86,63.2C87.6,63.2 89.4,63.6 91,64.2C92.4,64.8 93.8,65.6 95,66.6C96.2,67.6 97,68.8 97.8,70.2C98.4,71.6 98.8,73 98.8,74.6C98.8,76.2 98.4,77.8 97.8,79.2C97,80.6 96,81.8 94.8,82.8L101.6,93.8L93.2,93.8L88.2,86ZM86,79C86.8,79 87.4,78.8 88.2,78.6C88.8,78.4 89.4,78 90,77.6C90.4,77.2 91,76.8 91.2,76.2C91.4,75.8 91.6,75.2 91.6,74.6C91.6,74 91.4,73.4 91.2,73C90.8,72.4 90.4,72 90,71.6C89.4,71.2 88.8,70.8 88.2,70.6C87.4,70.4 86.8,70.2 86,70.2L86,79Z" style="fill:white;fill-rule:nonzero;"/>
    </g>
    <g transform="matrix(1,0,0,1,71,-40.6218)">
        <text x="94.537px" y="158px" style="font-family:'Tahoma', sans-serif;font-size:30px;fill:rgb(144,206,161);">Mo<tspan x="133.765px 148.707px " y="158px 158px ">vi</tspan>e Art</text>
        <text x="116.883px" y="188px" style="font-family:'Tahoma', sans-serif;font-size:30px;fill:rgb(144,206,161);">plugin</text>
    </g>
</svg>
